<svg width="58" height="58" viewBox="0 0 58 58" fill="none" xmlns="http://www.w3.org/2000/svg">
<path d="M43.4608 2.90455L43.7933 3.57393L46.3177 10.2808C46.5146 10.8058 46.9302 11.2258 47.4596 11.4227L53.9346 13.8508C56.7783 14.9183 58.3052 17.9546 57.5483 20.8289L57.3646 21.3977L54.3546 28.0608C54.2398 28.3152 54.1805 28.5911 54.1805 28.8702C54.1805 29.1493 54.2398 29.4251 54.3546 29.6796L57.2114 35.9752C57.8117 37.2957 57.9011 38.7919 57.4623 40.1746C57.0235 41.5572 56.0877 42.7281 54.8358 43.4608L54.1664 43.7933L47.4596 46.3177C47.1993 46.4165 46.963 46.5693 46.7662 46.7662C46.5693 46.963 46.4165 47.1993 46.3177 47.4596L43.8896 53.9346C43.3803 55.294 42.3847 56.4161 41.0956 57.0837C39.8065 57.7513 38.3156 57.9168 36.9114 57.5483L36.3427 57.3646L29.6796 54.3546C29.4251 54.2398 29.1493 54.1805 28.8702 54.1805C28.5911 54.1805 28.3152 54.2398 28.0608 54.3546L21.7652 57.2158C20.4441 57.8157 18.9475 57.9044 17.5648 57.4648C16.1821 57.0252 15.0116 56.0885 14.2796 54.8358L13.9471 54.1664L11.4227 47.4596C11.3239 47.1993 11.171 46.963 10.9742 46.7662C10.7774 46.5693 10.541 46.4165 10.2808 46.3177L3.8058 43.8896C2.44637 43.3803 1.32425 42.3847 0.656665 41.0956C-0.0109166 39.8065 -0.176471 38.3156 0.192054 36.9114L0.375803 36.3427L3.39018 29.6796C3.50491 29.4251 3.56425 29.1493 3.56425 28.8702C3.56425 28.5911 3.50491 28.3152 3.39018 28.0608L0.528928 21.7652C-0.0713599 20.4446 -0.160749 18.9484 0.27804 17.5658C0.71683 16.1832 1.65264 15.0123 2.90455 14.2796L3.57393 13.9471L10.2808 11.4227C10.541 11.3239 10.7774 11.171 10.9742 10.9742C11.171 10.7774 11.3239 10.541 11.4227 10.2808L13.8508 3.8058C14.3601 2.44637 15.3557 1.32425 16.6448 0.656665C17.9338 -0.0109166 19.4248 -0.176471 20.8289 0.192054L21.3977 0.375803L28.0608 3.39018C28.3152 3.50491 28.5911 3.56425 28.8702 3.56425C29.1493 3.56425 29.4251 3.50491 29.6796 3.39018L35.9752 0.528928C37.2957 -0.0713599 38.7919 -0.160749 40.1746 0.27804C41.5572 0.71683 42.7281 1.65264 43.4608 2.90455ZM38.3377 18.8296L24.3989 34.7677L19.3152 29.6752C19.1351 29.487 18.9193 29.3367 18.6804 29.2331C18.4414 29.1294 18.1842 29.0746 17.9238 29.0717C17.6633 29.0688 17.405 29.118 17.1638 29.2164C16.9226 29.3147 16.7035 29.4602 16.5194 29.6444C16.3352 29.8285 16.1897 30.0476 16.0914 30.2888C15.993 30.53 15.9438 30.7883 15.9467 31.0488C15.9496 31.3092 16.0044 31.5664 16.1081 31.8054C16.2117 32.0443 16.362 32.2601 16.5502 32.4402L23.1127 39.0027C23.3021 39.1916 23.5282 39.3397 23.7771 39.4377C24.026 39.5358 24.2924 39.5817 24.5598 39.5727C24.8272 39.5637 25.0898 39.4999 25.3316 39.3853C25.5733 39.2707 25.7889 39.1077 25.9652 38.9064L41.2777 21.4064C41.5895 21.0128 41.7379 20.5144 41.6923 20.0144C41.6467 19.5143 41.4104 19.051 41.0325 18.7203C40.6547 18.3897 40.1641 18.2171 39.6624 18.2382C39.1607 18.2593 38.6864 18.4683 38.3377 18.8296Z" fill="white"/>
</svg>
