<svg width="400" height="772" viewBox="0 0 400 772" fill="none" xmlns="http://www.w3.org/2000/svg">
<path d="M-6.2944 1.00015C-2.28866 7.5881 77.1806 70.9326 83.603 72.7754C89.4356 74.449 97.3969 62.2149 105.662 49.5079C114.942 35.2407 136.384 74.6073 145.201 77.366C162.633 82.8205 182.4 56.609 186.064 55.8697C191.132 54.8469 199.648 62.0714 213.023 70.1546C220.376 74.5987 231.131 75.3246 241.3 76.2625C261.239 78.1017 278.715 74.6514 293.027 65.1447C311.976 52.5585 314.093 33.0822 315.379 32.867C323.478 31.5113 318.86 52.1398 326.541 60.223C336.973 71.2022 354.879 66.1765 363.332 63.4287C374.419 59.8247 373.683 44.1394 374.974 38.4122C375.261 37.1394 375.161 35.6644 374.069 34.3678C365.296 23.9559 343.557 27.5426 326.541 34.2906C315.68 38.5977 297.916 49.4141 285.805 56.4821C267.865 66.9518 260.783 74.5962 251.833 83.7443C245.21 90.5141 232.323 99.4473 222.485 106.328C206.11 117.78 192.773 123.526 179.575 127.747C172.291 130.076 163.464 131.604 140.936 133.816C118.408 136.029 82.356 138.578 61.2349 139.709C40.1137 140.84 35.0155 140.476 29.1117 137.557C15.6515 130.902 4.80139 116.265 -5.47228 100.678C-10.8571 92.508 -15.746 83.2698 -10.9071 80.5828C-6.06818 77.8957 8.86231 81.9015 22.0161 90.1557C35.17 98.41 46.0947 110.791 62.1011 140.476C78.1075 170.16 98.8645 216.772 110.286 241.877C122.782 269.344 126.485 272.875 134.524 284.732C141.325 294.762 151.303 314.433 163.663 330.93C176.022 347.428 189.86 360.538 202.087 371.115C214.314 381.692 224.51 389.339 237.774 396.92C251.039 404.501 267.061 411.785 277.137 416.083C290.692 421.866 303.345 421.507 325.509 416.028C339.219 412.639 356.777 403.994 366.515 399.69C376.254 395.386 377.346 394.658 378.455 392.644C381.22 387.624 378.141 374.144 370.256 357.79C366.877 350.781 361.279 348.355 357.202 346.672C353.124 344.989 349.847 344.625 341.239 347.169C332.632 349.712 318.794 355.175 261.229 389.67C203.665 424.166 102.793 487.53 49.5542 520.718C-3.6846 553.906 -6.23371 554.998 -8.09312 555.561C-9.95253 556.124 -11.045 556.124 -11.6078 554.303C-13.2294 549.056 -5.9799 530.522 11.4114 507.178C19.9131 495.765 38.635 495.85 56.3574 497.086C74.0797 498.322 93.0159 503.42 129.537 523.162C166.057 542.904 219.589 577.135 247.894 595.315C276.199 613.495 277.655 614.588 284.778 621.341C291.901 628.095 304.647 640.476 317.039 651.406C329.432 662.337 341.085 671.44 349.819 677.223C370.732 691.067 383.934 688.181 393.485 687.083C397.612 686.608 400.123 685.256 396.884 695.254C393.645 705.252 384.541 726.373 378.395 739.621C372.248 752.868 369.335 757.602 363.464 761.134C357.593 764.665 348.854 766.85 335.429 768.34C322.005 769.829 304.161 770.558 280.403 769.658C256.644 768.759 227.512 766.21 207.224 763.622C186.936 761.034 176.375 758.485 161.831 752.802C147.287 747.119 129.079 738.379 110.959 728.779C92.8394 719.178 75.3598 708.982 63.2598 702.819C45.4765 693.761 36.0417 692.959 29.4483 694.233C19.3876 696.178 8.12295 706.146 -1.62104 715.879C-7.0172 728.613 -7.75655 737.43 -6.2944 743.516C-5.56056 744.813 -4.46809 745.905 -3.34251 747.031" stroke="#FFD8C4" stroke-opacity="0.23" stroke-width="2" stroke-linecap="round"/>
</svg>
