<svg width="215" height="397" viewBox="0 0 215 397" fill="none" xmlns="http://www.w3.org/2000/svg">
<path d="M122.092 28.4486C122.093 30.0421 117.019 38.229 115.858 39.9745C101.837 61.0742 100.559 81.8755 100.916 106.463C125.928 129.805 152.303 153.757 176.669 177.625L96.365 239.646C94.8346 236.313 95.6952 201.814 95.7511 195.06C71.4387 177.913 45.4251 160.801 20.7383 143.983L41.4034 80.9461L122.092 28.4486Z" fill="#D1E76F"/>
<path d="M258.73 149.595C260.684 152.703 259.625 200.972 259.578 208.438L334.066 261.383L311.264 322.38L234.525 367.167L233.086 366.613C252.831 341.156 256.348 318.702 257.376 287.948C231.257 262.804 204.968 237.836 178.51 213.048C205.108 191.718 231.849 170.567 258.73 149.595Z" fill="#D1E76F"/>
<path d="M11.9238 261.712C18.8543 264.739 46.2447 282.249 53.8234 286.885L147.443 344.525C151.505 338.922 155.657 334.739 161.945 331.627C170.205 327.463 179.799 326.815 188.544 329.831C197.207 332.733 204.311 339.045 208.211 347.306C213.057 357.742 211.697 366.79 207.828 377.055C200.926 389.671 183.729 400.458 169.289 394.814C154.055 388.86 138.347 378.283 123.945 369.964L39.799 321.57C30.4174 302.477 20.9583 281.122 11.9238 261.712Z" fill="#D1E76F"/>
<path d="M175.529 0.0388418C180.176 -0.0988489 185.421 0.0259225 189.625 2.17017C204.543 9.77901 219.681 20.6594 233.735 29.9622L317.012 85.169L343.948 144.945C336.66 140.687 324.948 132.104 317.619 127.092C281.238 103.97 243.587 77.2604 207.076 53.3352C201.409 60.2427 194.581 65.3845 185.693 67.3208C177.315 69.0649 168.589 67.3753 161.466 62.6322C153.537 57.5491 147.967 49.5085 145.995 40.299C141.656 19.1821 155.424 3.95012 175.529 0.0388418Z" fill="#D1E76F"/>
<path d="M21.9597 179.648C36.9909 176.333 51.8758 185.785 55.2708 200.801C58.6671 215.815 49.2956 230.753 34.3016 234.228C19.1915 237.73 4.11585 228.273 0.695096 213.143C-2.72566 198.014 6.81371 182.988 21.9597 179.648Z" fill="#D1E76F"/>
<path d="M198.868 87.993C214.155 85.4042 228.628 95.7554 231.119 111.061C233.612 126.366 223.171 140.773 207.853 143.17C192.669 145.545 178.415 135.215 175.946 120.046C173.476 104.876 183.715 90.5575 198.868 87.993Z" fill="#D1E76F"/>
<path d="M147.146 251.718C157.063 250.09 167.09 253.917 173.4 261.739C179.713 269.562 181.333 280.172 177.646 289.522C173.958 298.873 165.532 305.519 155.581 306.927C140.431 309.072 126.376 298.622 124.064 283.494C121.754 268.367 132.046 254.196 147.146 251.718Z" fill="#D1E76F"/>
</svg>
