<svg width="109" height="165" viewBox="0 0 109 165" fill="none" xmlns="http://www.w3.org/2000/svg">
<path d="M-12.5968 0.217804C-11.2011 -0.525875 -9.71854 0.746986 -8.69557 2.3343C-8.37589 2.82697 -8.88989 4.70835 -8.68487 5.13448C-8.28454 5.96539 -7.6416 5.10805 -7.27635 6.08054C-7.15688 6.4122 -7.87907 9.40688 -7.74087 9.6855C-6.97289 11.1918 -5.90998 10.579 -5.02977 11.394C-0.674545 15.418 3.91162 17.4376 8.59203 19.8063C10.1146 20.5802 11.5581 23.7268 13.4749 22.8903C13.7039 22.7909 14.1505 20.1281 14.2349 19.9188C15.5466 16.7195 14.2045 22.0007 14.4364 22.7909C15.3512 25.911 16.9713 26.5264 18.661 25.8464C19.3793 25.5491 19.9625 20.1856 19.9112 23.2599C19.9084 23.4678 19.1069 26.2224 19.2065 26.559C19.4326 27.3164 20.2949 26.9923 20.5412 27.2838C21.0152 27.8602 21.1163 27.8547 21.6507 28.0162C22.3661 28.2593 22.9324 29.8627 23.8828 29.4302C24.0889 29.3299 24.5702 26.4239 24.9651 26.0072C25.3609 25.5915 26.0251 26.0152 26.0962 26.7475C26.1705 27.4809 25.4986 29.6914 25.4114 30.215C24.6649 34.6317 27.0324 28.8559 27.1839 28.7375C29.7993 26.7243 30.6082 30.5925 32.4482 31.1021C33.853 31.4833 35.6938 30.8113 36.9916 31.3736C38.549 32.0592 39.3927 33.9958 41.0575 34.259C41.2306 34.2896 42.1242 30.9486 42.3408 30.9805C44.6166 31.3142 46.7481 32.4686 48.0577 35.4654C48.193 35.7707 46.8274 38.4935 46.8936 38.9663C47.3607 41.8101 46.9098 48.0917 52.8691 36.2905C53.5766 37.1514 54.5074 38.148 54.1827 40.9293C53.9839 42.7245 52.0905 45.485 53.3041 44.4974C53.5773 44.2791 54.6265 41.5765 54.9487 41.4499C56.3044 40.9197 56.8932 42.258 58.4804 41.3979C58.8076 41.2174 59.9533 38.8928 60.2227 38.507C62.4371 35.3981 60.3164 41.3503 60.2366 41.8252C59.819 45.4557 61.3416 44.7991 62.4421 45.5739C62.7006 45.7586 64.2131 42.6006 64.5381 42.679C66.1921 43.122 67.5309 44.3893 67.9841 46.666C68.0728 47.1742 66.0081 49.3298 65.9525 49.689C65.6878 51.217 69.2853 46.9217 69.1562 48.3756C69.1277 48.6729 67.4431 50.5738 67.2891 50.808C64.8274 54.4485 69.0918 49.9386 69.2893 49.9278C70.7202 49.6874 70.0636 51.6032 69.5404 53.1599C70.0997 53.424 70.9221 55.1023 71.3923 55.5042C70.7143 56.326 70.1837 57.0649 70.7181 57.2439C70.8825 57.2942 73.5048 55.418 73.7987 55.6609C75.773 57.2694 76.2759 59.9223 75.1744 63.2154C75.0068 63.7251 72.7742 64.6756 72.526 64.841C68.6485 67.4279 74.2019 64.6034 74.4653 64.5945C76.3982 64.5972 72.2387 67.8689 79.0478 64.8639C78.6893 69.5688 84.233 71.1651 80.0844 77.6733C80.0381 77.7521 77.2633 79.0601 77.1824 79.2109C76.1781 81.0396 80.3267 78.6836 85.893 76.7801C87.2928 76.3062 81.2685 79.9933 80.8301 80.2703C79.2156 81.2921 75.0429 83.147 74.7423 83.3691C72.39 85.1302 85.8605 78.3356 86.1934 78.9968C86.181 79.0285 83.6493 80.1736 83.4291 80.351C82.7365 80.9058 83.8094 80.5864 83.0343 81.176C81.2392 82.5373 74.7228 85.8978 78.8345 84.5934C79.3676 84.4233 86.9999 80.5496 86.9235 81.3152C86.8848 81.6192 87.5248 82.603 87.1652 83.1352C86.8067 83.6672 84.2256 84.6635 84.1282 84.7364C81.2159 87.0945 79.7115 87.4538 75.0259 90.1686C70.355 92.8677 81.8784 87.2303 83.2463 86.772C84.611 86.3164 82.1646 88.1776 81.2845 88.7628C80.4045 89.3493 78.7397 89.9284 78.2626 90.3042C75.1497 92.7701 84.188 87.9395 86.158 87.3429C90.8264 85.9394 82.4538 90.4917 81.8783 91.4632C81.7237 91.7273 83.6274 90.683 83.8768 90.7385C84.8397 90.9733 82.2996 92.5515 85.0645 92.0478C85.5147 91.9649 90.9541 90.103 87.2931 92.1902C86.7645 92.4896 84.5473 93.3418 84.174 93.8022C83.6131 94.4917 83.4328 95.3462 84.3275 95.4014C84.9895 95.4421 88.4016 93.507 87.4577 94.3649C87.0355 94.7465 84.8207 95.3945 84.2005 96.0314C83.5788 96.6638 84.0108 97.3805 84.2124 97.6386C84.4151 97.8944 87.05 96.528 87.2427 96.4698C88.3503 96.1453 89.9051 96.1245 89.9239 96.1757C91.3634 98.5259 87.7719 102.802 90.3224 104.591C90.5186 104.734 93.3439 103.392 93.4035 103.401C94.8871 103.55 87.0134 106.259 84.6395 107.787C90.4578 105.266 89.5122 105.979 90.3447 106.167C90.7507 106.256 92.9661 105.19 93.2064 105.113C96.7852 104.005 92.4359 106.091 91.5507 106.529C88.2951 108.14 92.3498 106.737 90.1735 107.814C88.0128 108.881 84.5788 109.906 84.802 110.326C86.951 109.583 92.2967 106.988 93.3251 106.96C97.2174 106.853 93.8812 111.014 93.834 112.206C93.789 113.399 94.3109 113.583 93.7839 114.484C92.8269 116.107 96.7695 114.106 98.9105 114.053C101.051 114.003 90.8255 117.583 88.6921 118.52C86.5579 119.452 88.8308 118.689 87.682 119.264C86.5329 119.839 84.9616 120.163 84.6164 120.602C84.2708 121.039 88.4242 120.309 90.7353 119.539C95.6317 117.907 100.557 115.633 99.0636 117.054C98.9742 117.137 96.2605 118.011 96.0532 118.276C94.4876 120.326 94.8667 121.729 93.5135 123.668C93.323 123.935 90.2925 124.871 90.1477 125.039C88.6258 126.775 93.5059 124.57 99.2996 123.142C91.8289 125.701 87.4082 127.677 87.6487 128.484C87.7906 128.971 91.0072 127.725 93.4075 127.22C94.1312 127.068 92.021 128.2 93.5708 127.718C98.6401 126.153 104.113 123.828 102.193 125.489C102.101 125.564 99.3217 126.409 99.202 126.598C98.4114 127.817 103.68 126.086 104.63 126.776C105.368 127.297 102.622 129.717 102.364 130.68C93.9442 133.493 96.1112 133.563 102.03 131.969C101.97 132.584 102.487 133.049 101.846 133.815C101.628 134.078 99.1458 134.756 98.8888 134.864C94.8514 136.536 100.587 134.923 100.847 134.969C103.422 135.565 99.4033 137.833 103.998 137.774C104.162 137.769 110.083 136.045 105.874 137.678C105.582 137.787 102.779 138.21 102.741 138.832C102.7 139.447 99.8444 141.44 102.812 141.419C103.526 141.414 108.476 140.514 104.824 141.972C104.328 142.169 102.61 142.592 101.684 142.936C98.7338 144.027 104.773 142.482 99.7512 144.184C94.7312 145.895 91.0453 147.44 94.7741 147.247C94.8828 147.242 99.7069 146.161 99.697 146.431C99.6772 146.863 98.8175 147.652 98.9482 148.042C99.0153 148.24 101.959 147.368 102.022 147.389C104.031 148.351 101.602 149.967 100.729 151.616C100.565 151.93 104.818 151.882 101.66 153.042C98.1797 154.186 83.2556 156.192 86.8983 156.323C87.5533 156.348 91.7681 155.947 95.323 155.815L95.3071 155.596C99.6518 155.723 102.99 156.026 97.577 156.771C100.104 158.473 95.0877 160.278 98.6277 161.994C98.7846 162.07 104.121 162.22 104.052 162.417C103.94 162.706 101.451 162.911 101.291 163.118C100.556 163.984 102.699 164.734 102.378 165.567C102.262 165.881 99.6838 165.803 99.5442 166.177C99.4069 166.552 102.803 166.76 101.169 167.286C99.9236 167.678 92.9918 168.122 92.1873 168.625C99.0284 168.59 98.8904 168.938 100.7 169.543C101.052 169.659 103.432 169.516 103.721 169.571C104.949 169.794 102.977 170.016 104.314 170.227C104.636 170.278 106.972 170.267 107.366 170.308C110.809 170.662 105.557 171.296 104.642 171.404C101.169 171.819 104.208 171.991 102.841 172.304C101.474 172.615 99.7617 172.164 98.9327 172.523C97.2179 173.265 97.5977 174.21 97.4916 174.959C97.4638 175.258 100.582 175.049 100.65 175.091C101.442 175.708 98.1259 176.337 104.338 176.674C88.2766 177.119 105.897 177.046 102.682 177.934C102.422 178.004 94.8261 178.096 93.7109 177.83C92.5967 177.564 94.9707 177.157 93.2321 176.789C92.8241 176.701 85.706 176.208 85.2747 176.141C81.9045 175.612 93.2549 175.52 93.8783 175.49C100.606 175.158 92.9367 174.556 92.4065 174.398C89.9771 173.667 91.5715 173.037 89.8364 172.431C88.715 172.032 81.2798 172.024 81.506 171.711C82.2535 170.673 92.6233 170.243 83.6236 169.323C81.704 169.128 73.5797 169.396 79.9636 168.603C80.3661 168.555 86.2069 167.948 82.5064 167.663C82.0399 167.627 79.6717 167.651 79.4723 167.601C78.182 167.261 80.0662 167.006 79.1584 166.635C78.2505 166.26 76.8979 165.823 77.6951 165.38C78.1718 165.116 82.5788 164.712 83.657 164.57C86.7631 164.166 81.6549 163.866 85.419 163.584C89.2017 163.292 94.9608 163.635 97.3965 162.989C91.2441 163.082 84.9289 163.15 78.7414 163.234C78.9343 161.984 80.8939 160.712 80.5831 159.499C80.5384 159.35 77.2372 159.61 77.1041 159.455C76.5568 158.804 78.8915 158.133 77.924 157.497C77.4431 157.188 75.8599 156.915 74.53 156.656L74.6105 157.766C73.856 157.939 73.1875 158.083 72.8685 158.153C79.8595 157.305 77.4358 157.232 78.0026 156.774C78.1985 156.611 80.0472 156.268 80.63 156.049C82.7761 155.202 76.7105 156.605 75.7302 156.695C71.546 157.096 85.3229 154.17 84.815 153.495C84.7904 153.446 77.3736 154.692 76.909 154.76C73.8583 155.106 79.4382 154.101 79.9214 153.737C80.8048 153.074 82.4485 152.253 80.1868 152.282C79.5147 152.282 74.8929 153.097 78.3101 151.863C78.7573 151.7 81.1623 151.089 81.2936 151.018C83.4631 149.75 75.9356 151.784 73.2987 152.15C70.6656 152.528 75.7055 150.565 77.1646 150.024C80.9438 148.64 78.8798 149.789 79.2627 149.697C83.8294 148.627 82.9384 148.434 83.2271 148.001C90.5701 145.874 90.0006 145.55 83.5021 147.58C82.7925 147.802 83.5454 147.843 83.2271 148.001C75.9337 149.773 74.8932 149.627 81.4659 147.131C84.5447 145.956 88.2939 145.126 86.7126 144.72C86.0023 144.55 80.9985 146.189 79.5349 146.304C76.2026 146.589 80.6073 144.204 79.6515 143.741C79.3029 143.567 76.6315 144.678 76.299 144.591C75.4086 144.365 77.3376 143.296 76.1283 143.15C76.0154 143.139 73.1768 144.164 73.0929 144.028C72.4155 143.064 73.9254 141.469 73.5923 140.306C73.431 139.747 71.5105 139.266 71.6269 138.578C71.8246 137.424 75.5074 134.675 74.1988 134.178C73.3557 133.845 70.5591 134.984 68.5389 135.44C64.6268 136.333 71.0398 133.084 72.0343 132.586C72.0674 132.569 72.9153 132.821 74.275 132.028C77.2515 130.771 72.0493 132.586 72.0343 132.586C72.6761 132.261 72.9694 131.069 72.3556 131.073C72.0213 131.077 69.3611 132.124 69.2377 132.108C66.3598 131.697 65.2075 130.696 65.9568 128.913C66.0019 128.869 69.0015 127.763 69.0701 127.674C70.1016 126.392 66.2669 127.319 63.8643 127.547C61.462 127.773 61.9972 127.009 66.9572 124.625C66.1253 124.398 68.1193 122.845 69.3301 121.906C70.5414 120.969 64.7413 123.227 64.6138 123.239C60.5356 123.648 63.59 121.701 63.657 120.4C63.6983 119.776 62.4347 119.081 61.5695 118.775C60.8805 118.546 62.1145 117.717 61.0833 117.67C60.9453 117.663 58.4141 118.792 58.3087 118.817C55.0632 119.651 61.3977 117.24 62.4731 116.676C66.383 114.626 68.4483 113.493 66.2897 113.705C65.7943 113.751 56.651 117.174 56.0252 117.161C55.2262 117.134 58.4905 115.876 57.5708 115.88C57.495 115.879 55.5157 116.736 55.5162 116.496C55.4936 115.398 56.188 113.848 55.5617 112.961C55.4837 112.837 52.4274 114.385 52.2637 114.229C51.4984 113.498 51.1756 112.462 52.2402 110.926C52.5129 110.545 54.7574 109.696 55.3848 109.357C59.1775 107.299 53.2931 109.461 53.1551 109.445C49.6953 109.092 54.2683 105.495 51.0618 105C50.8753 104.974 44.4939 107.156 49.5488 104.398C49.8853 104.215 55.0574 101.394 51.2982 102.852C51.0632 102.944 48.4159 104.428 48.5411 103.972C48.6648 103.515 46.5939 103.87 49.3789 101.985C50.2569 101.392 55.3787 98.5043 50.9607 100.111C50.6513 100.221 40.8229 104.189 47.2744 100.773C48.3363 100.21 55.2965 96.8667 51.4915 98.0965C50.7549 98.3374 49.2928 99.2676 48.2035 99.4882C46.527 99.8331 48.1303 98.407 44.8133 99.4591C44.226 99.645 39.3605 101.629 42.7841 99.5806C43.32 99.2593 45.6695 98.1948 45.8537 97.9174C46.7391 96.5911 44.8312 96.6339 46.0608 95.1143C46.4913 94.5775 50.2741 92.8234 51.1335 92.0494C51.9929 91.2759 52.6706 90.2413 50.8314 90.828C48.9925 91.4171 43.2379 94.7498 42.5554 94.5842C39.5965 93.8765 42.1337 90.3276 41.6869 88.2898C41.6215 87.9883 39.6442 89.329 39.3987 88.9682C38.481 87.6315 35.2203 86.3321 38.9414 82.6527C41.9146 79.6905 45.2939 79.4142 46.3002 77.8484C46.7739 77.0905 39.8357 80.5096 39.5767 80.546C36.9521 80.927 39.5834 78.642 38.2355 78.4097C37.9569 78.3635 35.3389 80.0873 35.1324 80.0318C34.4038 79.8582 35.3353 78.6841 34.8636 78.3863C34.6459 78.2567 32.6075 79.5056 32.6636 79.2376C32.7146 78.9472 32.8803 78.6025 33.2103 78.1617L38.6596 85.0599C39.1238 84.6877 39.7466 84.1102 40.5765 83.2384C40.7105 83.0843 42.7204 80.8931 42.7874 80.8046C42.9071 80.6813 44.1868 78.8674 42.6315 80.5487C42.1614 81.053 38.8592 85.4044 41.0736 82.3492C41.536 81.7113 45.463 76.4561 41.971 80.9238C41.3512 81.6379 36.8583 87.8224 39.5419 83.6895C40.249 82.602 43.1155 78.0615 42.5477 78.6984C42.463 78.804 40.9066 81.2919 40.6829 81.4879C39.9275 82.1395 39.8031 81.6956 39.0261 82.3067C38.8189 82.4769 37.4092 85.1694 37.1602 85.3458C36.4837 85.841 36.4443 84.9382 36.4851 83.8897C36.5045 83.4989 37.7549 81.3137 37.8711 81.0657C39.7127 77.0062 36.8612 82.2987 36.6513 82.5853C35.3331 84.2714 36.2869 81.5972 35.5658 82.0833C35.3735 82.2124 34.235 84.8432 34.1054 85.0647C32.8408 87.2294 35.1727 82.6389 35.2685 82.058C35.541 80.4142 34.9643 80.4082 34.3663 80.5484C34.146 80.6043 33.0103 83.7328 32.8359 83.7514C31.7931 83.9256 31.02 83.2683 30.7429 81.1993C30.691 80.8035 31.7187 78.4576 31.8903 77.8976C33.0846 73.9769 30.7164 79.0438 30.4496 79.5114C29.2058 81.6361 29.837 79.4579 29.325 79.7211C26.8804 81.0677 25.1148 78.905 23.5209 77.4476C21.4953 75.5792 20.1756 72.6741 17.5481 72.6241C17.3806 72.6176 16.6619 75.9483 16.5077 75.9854C14.604 76.3273 13.2169 74.6028 11.1997 75.1239C11.036 75.161 10.4828 78.3469 10.1983 78.5127C9.61815 78.8769 9.06657 78.5646 8.82051 77.4479C8.69843 76.909 9.65276 74.2896 9.51472 73.8018C9.19243 72.6593 8.63094 72.2928 7.9454 72.6661C7.65045 72.8315 7.28004 76.1321 6.95627 76.0969C4.71572 75.9202 2.46473 76.0115 1.11036 71.364C1.01676 71.0447 2.24441 64.4498 1.64696 65.6396C1.24482 67.457 0.803045 69.6014 0.389475 71.5474C-3.0539 71.93 -5.89133 69.0121 -9.1488 68.049C-9.28742 68.009 -9.68481 71.5488 -9.95535 71.4893C-11.5274 71.1483 -13.1973 71.8503 -14.2238 68.0867C-14.3243 67.7187 -13.1715 61.5737 -13.8099 62.4227C-13.9231 62.5781 -14.7848 63.2758 -15.2002 64.5816C-15.2599 64.7791 -15.6214 67.6775 -15.8667 67.7218C-17.295 67.9272 -18.574 67.0377 -19.6412 65.056C-19.8127 64.7306 -19.0765 61.7025 -19.195 61.4441C-20.0548 59.6317 -21.6147 61.773 -22.2397 58.8173C-22.6577 56.8278 -21.5542 51.5643 -21.118 46.2806C-21.0567 45.535 -21.4917 45.3471 -21.0395 42.3042C-19.9038 34.6524 -18.3672 26.3196 -17.1825 18.1595C-16.9269 16.4019 -17.8562 18.1926 -16.8178 14.0112C-16.7472 13.7315 -16.0663 12.3964 -15.7265 10.9761C-15.4909 9.99426 -15.1481 6.88122 -14.7856 5.63389C-14.4227 4.38785 -14.653 7.00638 -14.1484 5.5535C-13.6405 4.08224 -13.2016 0.548256 -12.5968 0.217804ZM74.7213 117.673C77.3401 116.177 67.175 120.239 69.7625 119.651C69.8996 119.618 74.5931 117.747 74.7213 117.673ZM89.1449 160.505C93.9569 159.848 86.8501 159.71 83.1334 160.174C79.4203 160.628 87.6859 160.698 89.1449 160.505ZM92.7716 165.856C96.57 165.186 81.0479 165.302 84.1939 165.911C84.3717 165.946 92.551 165.895 92.7716 165.856ZM-19.0894 45.0781C-19.0719 44.9337 -19.3723 44.7422 -19.4028 44.8833C-20.1216 48.2891 -19.5237 48.669 -19.0894 45.0781ZM96.6537 171.297C98.7525 171.091 96.3257 170.544 93.716 170.799C91.6166 171.003 94.0429 171.552 96.6537 171.297ZM77.0431 93.7371C77.1883 93.6624 77.2211 93.3853 76.3877 93.7799C73.7038 95.0512 74.6015 94.993 77.0431 93.7371ZM96.8477 180.662C97.432 179.277 110.254 178.432 108.807 179.944C108.545 180.217 104.718 179.355 103.562 179.703C101.456 180.34 109.507 180.763 105.193 181.413C104.403 181.531 96.7859 180.741 96.8298 180.66C96.8358 180.66 96.8418 180.661 96.8477 180.662ZM86.82 112.521C86.9509 112.458 86.9532 112.099 86.8179 112.147C83.5317 113.291 83.5216 114.007 86.82 112.521ZM77.0091 78.2292C77.2758 78.0729 77.1782 77.2483 76.9135 77.3553C71.6745 79.592 71.8456 81.2443 77.0091 78.2292ZM102.143 130.768C105.574 130.002 106.106 130.297 102.034 131.966C102.136 131.533 102.055 131.182 102.143 130.768Z" fill="#4B7F01"/>
</svg>
