<svg width="61" height="61" viewBox="0 0 61 61" fill="none" xmlns="http://www.w3.org/2000/svg">
<rect width="61" height="61" rx="30.5" fill="#024E44"/>
<path d="M38.2324 21.8005C40.3677 21.8005 42.0995 23.5315 42.0996 25.6667V35.3328C42.0996 37.4681 40.3678 39.2 38.2324 39.2H22.7666C20.6313 39.1998 18.9004 37.468 18.9004 35.3328V25.6667C18.9005 23.5316 20.6314 21.8007 22.7666 21.8005H38.2324ZM20.834 35.3328C20.834 36.4004 21.699 37.2662 22.7666 37.2664H38.2324C39.3001 37.2664 40.166 36.4005 40.166 35.3328V34.3669H20.834V35.3328ZM22.7666 23.7341C21.6991 23.7343 20.8341 24.5992 20.834 25.6667V32.4333H40.166V25.6667C40.1659 24.5991 39.3001 23.7341 38.2324 23.7341H22.7666ZM27.5996 26.6335C28.1335 26.6335 28.5664 27.0665 28.5664 27.6003C28.5663 28.1341 28.1334 28.5671 27.5996 28.5671H23.7334C23.1996 28.5671 22.7667 28.1341 22.7666 27.6003C22.7666 27.0665 23.1996 26.6336 23.7334 26.6335H27.5996Z" fill="#90C841"/>
</svg>
