<svg width="55" height="55" viewBox="0 0 55 55" fill="none" xmlns="http://www.w3.org/2000/svg">
<rect width="55" height="55" rx="27.5" fill="#D1E76F"/>
<path d="M36.5 22C36.5 23.93 34.93 25.5 33 25.5C31.07 25.5 29.5 23.93 29.5 22C29.5 20.07 31.07 18.5 33 18.5C34.93 18.5 36.5 20.07 36.5 22ZM34.5 27.29C34 27.42 33.5 27.5 33 27.5C31.5421 27.4974 30.1447 26.9171 29.1138 25.8862C28.083 24.8553 27.5026 23.4579 27.5 22C27.5 20.53 28.08 19.2 29 18.21C28.8185 17.9875 28.5897 17.8084 28.3302 17.6855C28.0707 17.5627 27.7871 17.4993 27.5 17.5C26.4 17.5 25.5 18.4 25.5 19.5V19.79C22.53 20.67 20.5 23.4 20.5 26.5V32.5L18.5 34.5V35.5H36.5V34.5L34.5 32.5V27.29ZM27.5 38.5C28.61 38.5 29.5 37.61 29.5 36.5H25.5C25.5 37.0304 25.7107 37.5391 26.0858 37.9142C26.4609 38.2893 26.9696 38.5 27.5 38.5Z" fill="#024E44"/>
</svg>
