<svg width="300" height="80" viewBox="0 0 300 80" fill="none" xmlns="http://www.w3.org/2000/svg">
  <!-- Logo Icon -->
  <g transform="translate(0, 14) scale(1.0)">
    <path d="M16.0179 3.73236C16.0181 3.94142 15.3523 5.01551 15.2001 5.24451C13.3605 8.01271 13.1929 10.7418 13.2397 13.9676C16.5213 17.0299 19.9816 20.1724 23.1782 23.3038L12.6427 31.4407C12.4419 31.0034 12.5548 26.4773 12.5621 25.5912C9.37241 23.3416 5.95952 21.0965 2.7207 18.89L5.43189 10.6198L16.0179 3.73236Z" fill="#98B80B"/>
    <path d="M33.9446 19.6263C34.2009 20.0341 34.062 26.3669 34.0558 27.3463L43.8283 34.2925L40.8368 42.2951L30.769 48.1709L30.5801 48.0983C33.1706 44.7584 33.632 41.8126 33.7669 37.7778C30.3401 34.479 26.8911 31.2033 23.4199 27.9511C26.9096 25.1528 30.4179 22.3778 33.9446 19.6263Z" fill="#98B80B"/>
    <path d="M1.56445 34.3356C2.4737 34.7329 6.06723 37.0301 7.06153 37.6382L19.3441 45.2005C19.877 44.4653 20.4218 43.9166 21.2467 43.5083C22.3304 42.962 23.5891 42.877 24.7364 43.2727C25.8729 43.6534 26.8049 44.4815 27.3166 45.5654C27.9524 46.9345 27.774 48.1215 27.2663 49.4683C26.3608 51.1234 24.1047 52.5387 22.2101 51.7982C20.2116 51.0171 18.1507 49.6293 16.2613 48.5379L5.22158 42.1888C3.99075 39.6839 2.74975 36.8822 1.56445 34.3356Z" fill="#98B80B"/>
    <path d="M23.0288 0.00509591C23.6385 -0.0129686 24.3266 0.00340094 24.8781 0.284718C26.8353 1.28297 28.8213 2.71045 30.6652 3.93093L41.5908 11.1739L45.1247 19.0163C44.1686 18.4576 42.632 17.3316 41.6705 16.674C36.8975 13.6404 31.9577 10.1363 27.1676 6.99739C26.4242 7.90362 25.5283 8.57822 24.3622 8.83225C23.2631 9.06107 22.1182 8.83941 21.1838 8.21712C20.1435 7.55024 19.4127 6.49534 19.154 5.28709C18.5847 2.51663 20.391 0.518242 23.0288 0.00509591Z" fill="#98B80B"/>
    <path d="M2.88103 23.5692C4.85308 23.1343 6.80593 24.3744 7.25133 26.3443C7.69692 28.3141 6.4674 30.2739 4.50025 30.7299C2.51786 31.1894 0.539985 29.9486 0.0911942 27.9636C-0.357597 25.9787 0.893935 24.0074 2.88103 23.5692Z" fill="#98B80B"/>
    <path d="M26.0907 11.5444C28.0963 11.2047 29.9951 12.5628 30.322 14.5707C30.649 16.5787 29.2791 18.4689 27.2694 18.7834C25.2774 19.095 23.4074 17.7398 23.0834 15.7497C22.7593 13.7594 24.1027 11.8808 26.0907 11.5444Z" fill="#98B80B"/>
    <path d="M42.2851 22.3993C44.2601 21.9848 46.1989 23.244 46.6232 25.217C47.0475 27.1902 45.7979 29.1353 43.8272 29.5692C41.8425 30.0064 39.8812 28.746 39.4539 26.7593C39.0265 24.7723 40.2965 22.8169 42.2851 22.3993Z" fill="#98B80B"/>
    <path d="M19.3051 33.0245C20.6062 32.8109 21.9217 33.3129 22.7496 34.3392C23.5778 35.3655 23.7904 36.7576 23.3066 37.9843C22.8228 39.211 21.7173 40.083 20.4118 40.2678C18.4241 40.5491 16.5802 39.1781 16.2769 37.1934C15.9737 35.2088 17.3241 33.3496 19.3051 33.0245Z" fill="#98B80B"/>
  </g>

  <!-- NutriSnap Text -->
  <text x="65" y="52" font-family="Arial, Helvetica, sans-serif" font-size="36" font-weight="600" fill="#FFFFFF">NutriSnap</text>
</svg>
