<svg width="175" height="127" viewBox="0 0 175 127" fill="none" xmlns="http://www.w3.org/2000/svg">
<path d="M54.1024 -58.3642C55.657 -57.6168 55.7365 -55.4978 55.2587 -53.576C55.1128 -52.976 53.3355 -52.1673 53.1602 -51.708C52.8198 -50.8102 53.916 -50.8341 53.4629 -49.8458C53.3033 -49.5154 50.5431 -48.1418 50.4362 -47.8314C49.8699 -46.1414 51.1011 -45.6189 51.1402 -44.2961C51.2898 -37.8418 53.2582 -32.4542 55.1616 -26.7999C55.7723 -24.9668 54.6479 -21.53 56.7462 -20.5098C56.9922 -20.3942 59.1919 -21.9611 59.4028 -22.0439C62.6381 -23.3011 57.9271 -20.5609 57.5579 -19.7954C56.1068 -16.7629 56.9376 -15.014 58.7637 -14.1113C59.5397 -13.7432 63.6355 -17.2735 61.5121 -15.0217C61.3695 -14.8683 58.8667 -13.4631 58.7194 -13.129C58.3906 -12.3737 59.287 -11.9355 59.2868 -11.5206C59.2749 -10.7121 59.3596 -10.6352 59.6775 -10.0901C60.0874 -9.33704 59.4653 -7.6909 60.5337 -7.25013C60.7677 -7.16256 63.0714 -9.00244 63.6652 -9.00993C64.2585 -9.01646 64.5164 -8.1754 64.0961 -7.55694C63.6757 -6.93785 61.6857 -5.76294 61.2726 -5.42865C57.7824 -2.61275 63.4715 -5.22513 63.666 -5.20927C67.0633 -4.80933 65.2743 -1.15641 66.4736 0.593716C67.3852 1.91085 69.3309 2.69637 70.0824 4.06838C70.9716 5.71377 70.5 7.82413 71.7859 9.1837C71.9161 9.32516 74.6156 7.16158 74.7798 7.32939C76.5213 9.11351 77.5695 11.2408 77.1154 14.6007C77.0654 14.9366 74.4215 16.4521 74.225 16.8942C73.0642 19.5478 69.6447 25.0179 80.8238 17.9436C81.0061 19.0643 81.2939 20.3506 79.6854 22.6463C78.6541 24.1293 75.6611 25.6382 77.2293 25.3853C77.5799 25.3305 79.7708 23.4309 80.1204 23.4781C81.5884 23.6763 81.5069 25.1337 83.299 25.0269C83.6687 25.0008 85.7022 23.3938 86.1087 23.1577C89.4089 21.2571 84.9042 25.6538 84.652 26.0716C82.7904 29.214 84.4545 29.1936 85.1459 30.2222C85.3052 30.4617 87.8499 28.0632 88.101 28.2156C89.3412 29.002 90.0713 30.4195 89.7176 32.46C89.6347 32.9219 87.1335 34.5393 86.9755 34.8549C86.3099 36.2271 90.7794 32.8506 90.2215 34.0911C90.1131 34.3526 88.0822 35.8768 87.8801 36.0704C84.709 39.1115 89.7617 35.5016 89.9294 35.4918C92.1707 35.2954 87.6382 39.983 89.104 40.329C89.2833 40.3647 91.5692 38.087 91.9197 38.3098C94.334 39.8611 95.448 42.5628 95.2209 46.2351C95.186 46.7998 93.1702 48.1562 92.9613 48.3693C89.7177 51.7235 94.6253 47.8795 94.8885 47.8252C96.8683 47.5325 93.607 51.7313 99.6334 47.3517C100.704 52.4453 106.688 52.7742 105.048 60.5582C105.033 60.6522 102.784 62.7387 102.764 62.9176C102.494 65.0879 105.722 61.574 110.44 58.0447C111.621 57.1549 107.166 62.642 106.852 63.0566C105.68 64.5694 102.328 67.6715 102.124 67.9866C100.557 70.4967 111.003 59.6121 111.59 60.1718C111.591 60.2078 109.586 62.1323 109.445 62.3792C109 63.1542 109.918 62.5059 109.408 63.341C108.221 65.266 103.312 70.7151 106.78 68.1215C107.227 67.7811 112.991 61.4561 113.245 62.2467C113.345 62.5722 114.366 63.3161 114.245 63.9537C114.132 64.6005 112.098 66.4775 112.034 66.5816C110.325 69.9543 109.03 70.8199 105.805 75.1811C102.608 79.5382 111.05 69.8776 112.15 68.9405C113.249 68.0076 111.771 70.7174 111.232 71.6356C110.681 72.5436 109.351 73.7084 109.085 74.2629C107.372 77.903 113.63 69.7777 115.224 68.4662C118.962 65.3267 113.227 72.9388 113.23 74.1596C113.225 74.4839 114.491 72.7179 114.758 72.6779C115.79 72.5323 114.229 75.0938 116.589 73.5063C116.979 73.2528 121.056 69.1948 118.74 72.7164C118.409 73.2266 116.791 74.9686 116.703 75.5784C116.571 76.4925 116.904 77.4137 117.766 77.0789C118.409 76.8356 120.474 73.4939 120.09 74.7312C119.92 75.2841 118.225 76.8633 118.027 77.7545C117.872 78.452 118.35 78.9163 118.72 79.1515L118.123 78.7934C118.243 78.8387 118.351 78.8689 118.433 78.8878C118.808 78.9724 119.861 76.1948 119.973 76.0264C120.618 75.065 121.849 74.0569 121.902 74.0848C124.85 75.0291 125.549 80.7619 129.041 80.3805C129.309 80.3525 130.321 77.3918 130.373 77.3576C131.61 76.4409 127.941 83.9225 127.468 86.7262C129.718 80.7972 129.617 81.9925 130.411 81.5555C130.795 81.3397 131.542 78.9957 131.657 78.7708C133.382 75.44 131.906 80.0327 131.625 80.9803C130.581 84.4623 132.395 80.57 131.709 82.9008C131.036 85.2175 129.358 88.3942 129.915 88.556C130.863 86.4875 132.568 80.7911 133.299 80.0392C136.014 77.1816 137.169 82.5302 138.247 83.399C139.292 84.261 139.824 83.9921 140.273 84.9998C141.097 86.8211 141.974 82.4805 143.347 80.8C144.714 79.115 141.15 89.3467 140.579 91.6067C140.012 93.8667 140.843 91.6162 140.614 92.8837C140.387 94.1515 139.606 95.5682 139.814 96.1334C140.031 96.7016 142.176 93.0218 142.977 90.7195C144.683 85.8463 145.808 80.5371 146.123 82.6097C146.141 82.7324 145.187 85.4203 145.297 85.7519C146.222 88.3018 147.8 88.875 148.876 91.1546C149.027 91.4733 148.041 94.4903 148.122 94.7108C148.968 97.0176 149.81 91.7199 151.937 86.1358C149.882 93.7601 149.118 98.5504 150.163 98.8489C150.783 99.0283 151.47 95.6469 152.416 93.3723C152.698 92.6861 152.592 95.0917 153.036 93.5296C154.475 88.4204 155.406 82.5476 155.872 85.075C155.891 85.1944 155.116 87.9946 155.231 88.2002C155.973 89.5435 157.276 84.1525 158.449 83.7143C159.359 83.3684 160.159 86.9776 161.016 87.6985C159.332 96.4147 160.673 94.5984 162.133 88.6426C162.707 89.0021 163.445 88.7812 163.904 89.7182C164.063 90.0382 163.494 92.5481 163.473 92.8263C163.154 97.1912 164.425 91.3665 164.597 91.1584C166.429 89.1625 166.957 93.8107 169.012 89.6527C169.086 89.503 170.044 83.4115 169.776 87.9211C169.758 88.232 168.893 90.9427 169.528 91.2522C170.154 91.5611 170.994 95.0113 172.294 92.2965C172.609 91.6436 173.792 86.7478 173.765 90.6846C173.761 91.2191 173.479 92.9663 173.447 93.9539C173.357 97.1018 174.258 90.9331 173.966 96.2306C173.673 101.528 173.964 105.555 175.349 102.034C175.393 101.932 176.166 97.0477 176.458 97.1582C176.926 97.3392 177.502 98.4355 178.01 98.4556C178.254 98.4635 178.414 95.3963 178.462 95.3449C180.244 93.7998 181.114 96.6307 182.752 97.9704C183.055 98.2224 184.329 94.136 184.661 97.4832C185.033 101.148 183.055 116.094 184.959 112.653C185.631 111.454 187.491 96.8986 188.179 99.7461C188.182 99.7471 188.192 99.7461 188.195 99.747C188.31 100.165 188.416 100.964 188.511 102.245C190.825 99.8866 192.737 105.004 195.046 101.547C195.149 101.394 195.565 96.069 195.797 96.1459C196.136 96.2701 196.283 98.7651 196.529 98.9335C197.554 99.7014 198.533 97.5826 199.528 97.9261C199.904 98.0511 199.742 100.626 200.195 100.775C200.65 100.922 200.981 97.5319 201.581 99.1763C202.03 100.43 202.439 107.369 203.054 108.182C203.13 101.341 203.552 101.485 204.316 99.6844C204.462 99.3349 204.322 96.9529 204.393 96.6647C204.678 95.4393 204.921 97.4142 205.193 96.0798C205.258 95.7593 205.274 93.423 205.329 93.0292C205.791 89.5911 206.495 94.8497 206.618 95.7652C207.085 99.2424 207.325 96.2047 207.69 97.5745C208.055 98.9441 207.495 100.653 207.925 101.484C208.818 103.205 209.975 102.831 210.887 102.94C211.252 102.969 211.009 99.8498 211.061 99.7816C211.814 98.9919 212.571 102.31 212.994 96.0985C213.5 112.161 213.449 94.5411 214.52 97.7572C214.604 98.0173 214.708 105.613 214.382 106.728C214.056 107.842 213.563 105.467 213.11 107.205C213.003 107.613 212.38 114.73 212.296 115.161C211.633 118.529 211.556 107.179 211.523 106.555C211.141 99.8267 210.378 107.493 210.179 108.022C209.268 110.448 208.502 108.85 207.738 110.58C207.238 111.698 207.159 119.133 206.768 118.903C205.462 118.145 205.075 107.771 203.787 116.756C203.51 118.672 203.718 126.801 202.811 120.404C202.753 120 202.097 114.149 201.658 117.843C201.603 118.309 201.583 120.677 201.514 120.875C201.049 122.158 200.76 120.268 200.257 121.167C199.749 122.065 199.136 123.405 198.574 122.595C198.238 122.11 197.854 117.692 197.708 116.609C197.297 113.491 196.716 118.585 196.493 114.813C196.27 111.021 196.92 105.279 196.217 102.82C196.083 108.972 195.909 115.285 195.755 121.471C194.077 121.225 192.449 119.199 190.719 119.419C190.501 119.452 190.622 122.765 190.384 122.886C189.381 123.38 188.596 120.993 187.503 121.886C187.402 121.97 187.299 122.092 187.193 122.245C187.044 122.195 186.556 122.25 186.408 122.196C185.643 123.303 184.69 126.047 183.922 126.764C184.015 119.707 182.645 121.991 181.838 121.274C181.556 121.027 181.741 119.155 181.582 118.525C180.979 116.194 180.802 122.424 180.491 123.38C179.148 127.454 180.354 113.423 179.219 113.665C179.163 113.673 177.713 121.075 177.563 121.53C176.619 124.5 177.711 118.919 177.365 118.328C176.733 117.246 176.414 115.412 175.326 117.508C175.01 118.129 173.895 122.716 173.794 119.063C173.781 118.585 174.089 116.123 174.054 115.973C173.394 113.462 172.495 121.206 171.639 123.765C170.778 126.324 170.559 120.877 170.581 119.316C170.622 115.279 171.128 117.655 171.199 117.267C172.037 112.648 171.342 113.377 170.932 112.928C171.799 105.332 171.123 105.71 170.504 112.492C170.439 113.233 170.883 112.57 170.932 112.928C169.618 120.323 168.737 121.181 168.861 114.128C168.922 110.823 169.768 107.073 168.492 108.315C167.912 108.874 167.392 114.116 166.747 115.475C165.257 118.575 164.613 113.519 163.447 114.121C163.018 114.339 162.955 117.245 162.643 117.491C161.81 118.153 161.532 115.919 160.641 116.895C160.559 116.987 160.228 119.989 159.997 119.99C158.232 120.051 157.085 117.887 155.327 117.499C154.484 117.316 152.617 118.641 151.794 118.128C150.347 117.256 149.431 112.561 147.91 113.3C146.916 113.768 146.405 116.746 145.559 118.658C143.899 122.359 144.322 115.112 144.439 114.001C144.444 113.965 145.339 113.454 145.327 111.856C145.885 108.67 144.452 113.99 144.439 114.001C144.504 113.283 143.218 112.249 142.794 112.732C142.559 112.996 141.923 115.784 141.813 115.87C139.202 117.831 136.968 117.963 135.361 116.094C135.342 116.028 136.301 112.978 136.247 112.862C135.517 111.163 133.674 114.689 132.022 116.606C130.371 118.522 129.825 117.529 130.974 112.132C130.057 112.561 129.803 109.919 129.719 108.335C129.631 106.751 127.536 112.611 127.444 112.709C124.548 115.877 124.802 112.188 123.358 111.07C122.688 110.533 120.825 110.798 119.748 111.11C118.89 111.367 119.023 109.853 118.073 110.481C117.944 110.564 117.01 113.174 116.945 113.263C115.031 116.071 117.863 109.907 118.169 108.727C119.292 104.438 119.885 102.152 118.268 103.729C117.903 104.092 113.625 112.88 113.027 113.25C112.268 113.718 113.794 110.567 112.974 111.142C112.905 111.188 112.082 113.182 111.81 112.965C110.531 111.979 109.497 110.165 107.945 109.71C107.736 109.64 106.603 112.881 106.274 112.829C105.09 112.644 103.964 112.127 103.206 110.941C102.159 110.046 98.2622 108.574 97.4252 107.48C97.271 107.086 97.1585 106.639 97.0991 106.136C97.0411 105.583 98.6851 103.824 99.0513 103.209C101.278 99.4951 96.8861 104.002 96.7255 104.028C92.617 104.636 94.5431 98.9061 90.6503 99.1322C90.4411 99.1628 85.1625 103.466 88.5222 98.7673C88.7414 98.4511 92.2252 93.6858 89.2232 96.4006C89.0357 96.5706 87.2808 99.0601 87.0557 98.4504C86.8482 97.857 84.8153 98.7543 86.4608 95.7568C86.9746 94.8086 90.4984 90.0847 86.832 93.0676C86.5909 93.2904 78.5756 100.284 83.2417 94.6577C84.0108 93.7323 89.3331 88.1402 85.9995 90.4406C85.3545 90.8875 84.3872 92.3422 83.3434 92.8365C81.7325 93.5958 82.5342 91.5045 79.5542 93.4093C79.0367 93.7564 74.9141 97.0605 77.354 93.884C77.7353 93.3856 79.6352 91.6379 79.6579 91.2571C79.7871 89.4502 77.6344 89.7435 78.0641 87.6446C78.2125 86.9042 81.3233 84.1235 81.8146 83.032C82.305 81.9404 82.4657 80.5704 80.7796 81.5676C79.0899 82.5624 74.6845 87.5596 73.8042 87.415C70.0435 86.8484 70.7991 81.95 69.2448 79.3869C69.0163 79.0077 67.4977 80.8718 67.0302 80.4216C65.2752 78.7507 60.8514 77.0783 63.3851 72.2638C65.4132 68.4106 69.067 67.9482 69.5284 65.9531C69.7501 65.0027 63.4409 69.4999 63.1583 69.542C60.3246 70.0132 62.3713 67.1276 60.7507 66.817C60.4162 66.7545 58.1695 68.9483 57.9103 68.8716C57.0056 68.6295 57.5513 67.0935 56.904 66.7053C56.6077 66.5352 54.7933 68.0923 54.7488 67.7458C54.6211 66.934 55.0017 65.8081 56.307 63.8583C56.4264 63.6812 59.0075 62.145 58.7635 61.6665C58.3647 60.9004 59.4068 58.6664 57.0416 59.3584C56.3283 59.5643 52.0409 62.9501 54.6139 60.1224C55.1506 59.5307 60.4 55.5941 55.5075 58.544C54.6977 59.0388 47.9242 62.7937 51.4263 59.2718C52.3492 58.3466 56.3258 54.7176 55.451 54.9672C55.3166 55.0137 53.1147 56.962 52.7165 56.9164C51.3522 56.7229 50.9568 55.6999 49.5922 55.4318C49.2226 55.3631 47.0686 57.5435 46.5933 57.38C45.2759 56.924 45.0214 55.3129 45.1212 53.8679C45.16 53.3283 47.3371 52.0374 47.5375 51.8487C50.8065 48.7896 45.8392 52.1828 45.4627 52.2652C43.1898 52.7339 44.9923 50.4309 43.8403 50.1347C43.528 50.0475 41.3378 51.904 41.1023 52.0155C38.7881 53.0869 43.1485 50.3273 43.4111 49.7297C44.1643 48.0503 43.3808 47.3775 42.5368 46.8473C42.2233 46.6549 39.7729 48.9311 39.5216 48.7344C37.971 47.5901 37.125 45.8848 37.5899 43.3961C37.6814 42.9225 39.8795 41.597 40.3135 41.1998C43.3571 38.4303 38.4227 41.1183 37.8954 41.2942C35.4952 42.1083 37.1679 40.5575 36.4444 40.2699C32.9521 38.9944 31.8922 34.8686 31.0213 31.9749C29.7853 28.0847 30.2102 24.3779 27.6192 21.6502C27.4578 21.4757 24.7617 23.5661 24.587 23.4412C22.5037 21.8053 22.2001 18.9416 19.9523 17.3095C19.7761 17.1771 17.2434 19.1984 16.8693 19.0444C16.0829 18.7408 15.7504 17.9126 16.2301 16.7625C16.4591 16.2052 19.0279 15.0755 19.2115 14.5461C19.6446 13.3102 19.369 12.465 18.4834 12.0499C18.1004 11.8767 15.6222 14.1202 15.3394 13.754C13.3421 11.2732 11.2763 9.1032 13.1675 4.1082C13.299 3.76749 18.8577 0.0103188 17.5362 0.327446C15.9458 1.29491 14.097 2.46767 12.4083 3.51949C9.13497 0.353107 8.71552 -4.7105 6.68447 -8.6939C6.59679 -8.86373 3.74398 -6.71951 3.55838 -7.03954C2.46862 -8.91011 0.567057 -10.1319 2.46341 -13.8107C2.64712 -14.1735 8.04583 -17.3271 6.91093 -17.3742C6.70597 -17.3791 5.49954 -17.7602 4.21043 -17.2692C4.0179 -17.1919 1.61306 -15.53 1.38013 -15.7504C0.0669003 -17.063 -0.339828 -19.0285 0.291716 -21.4417C0.397007 -21.8364 3.21749 -23.1751 3.31579 -23.4698C3.99424 -25.5457 1.15897 -25.686 2.87043 -28.3271C4.02634 -30.0997 8.8196 -32.5484 13.1133 -35.6727C13.7191 -36.1134 13.5273 -36.668 16.1578 -38.2632C22.7719 -42.2751 30.1967 -46.3608 37.2298 -50.6655C38.7451 -51.5919 36.715 -51.2651 40.6342 -53.0701C40.8972 -53.1895 42.4003 -53.4476 43.7203 -54.0763C44.6332 -54.5103 47.2378 -56.2515 48.4422 -56.7468C49.6455 -57.2418 47.4971 -55.7236 48.9581 -56.2285C50.4348 -56.7439 53.4237 -58.6806 54.1024 -58.3642ZM129.368 101.25C129.87 98.2568 126.114 108.539 127.553 106.271C127.627 106.149 129.345 101.397 129.368 101.25ZM192.663 110.941C192.115 106.097 191.463 113.18 191.84 116.921C192.226 120.658 192.836 112.409 192.663 110.941ZM199.622 107.538C198.899 103.722 198.578 119.241 199.455 116.114C199.506 115.937 199.664 107.759 199.622 107.538ZM15.5694 -34.4896C15.6907 -34.57 15.6032 -34.9935 15.4744 -34.9283C12.3762 -33.3361 12.5545 -32.4883 15.5694 -34.4896ZM206.407 103.752C206.178 101.652 205.48 104.072 205.763 106.684C205.991 108.786 206.694 106.366 206.407 103.752ZM109.807 78.2629C109.906 78.133 109.777 77.8317 109.186 78.5398C107.286 80.8225 108.146 80.4504 109.807 78.2629ZM217.834 103.593C216.146 103.008 215.131 90.1858 216.963 91.6329C217.295 91.8948 216.247 95.7217 216.669 96.8778C217.444 98.9839 217.959 90.9332 218.746 95.2472C218.89 96.0368 217.932 103.654 217.831 103.61C217.832 103.604 217.833 103.599 217.834 103.593ZM133.484 88.7594C133.524 88.6198 133.194 88.3562 133.136 88.4879C131.756 91.6853 132.436 92.2237 133.484 88.7594ZM102.192 61.9245C102.398 61.6943 101.965 60.8382 101.739 61.0131C97.3211 64.6225 98.2221 66.4046 102.192 61.9245ZM160.987 87.934C162.052 84.5778 162.591 84.2592 162.132 88.6379C161.765 88.334 161.359 88.2235 160.987 87.934Z" fill="#4B7F01"/>
</svg>
